<svg width="350" height="334" viewBox="0 0 350 334" fill="none" xmlns="http://www.w3.org/2000/svg">
<path d="M297.425 43.3763C264.568 15.405 221.004 0 174.759 0C128.515 0 84.9498 15.405 52.0945 43.3763C18.5009 71.9735 0 110.286 0 151.252C0 192.218 18.5009 230.528 52.0945 259.127C84.9498 287.099 128.515 302.504 174.759 302.504C189.793 302.504 204.532 300.849 218.721 297.69L275.587 333.85V274.887C283.273 270.183 290.591 264.943 297.425 259.127C331.019 230.528 349.519 192.218 349.519 151.252C349.519 110.286 331.019 71.9756 297.425 43.3763Z" fill="#FDCB00"/>
</svg>
