<svg width="451" height="310" viewBox="0 0 451 310" fill="none" xmlns="http://www.w3.org/2000/svg">
<path d="M382.071 266.401L332.013 255.116L306.289 299.424L261.919 273.621L225.35 309.602L188.78 273.621L144.405 299.424L118.682 255.116L68.6231 266.401L65.984 221.537L20.95 220.488L37.6752 179L0 154.795L37.6772 130.594L20.954 89.106L65.98 88.0666L68.6231 43.199L118.682 54.4855L144.403 10.1781L188.774 35.9807L225.344 7.62939e-05L261.913 35.9807L306.289 10.1781L332.013 54.4855L382.071 43.199L384.71 88.0646L429.744 89.1118L413.017 130.6L450.694 154.805L413.015 179.008L429.74 220.494L384.712 221.535L382.071 266.401Z" fill="#FF8000"/>
</svg>
