<svg width="498" height="265" viewBox="0 0 498 265" fill="none" xmlns="http://www.w3.org/2000/svg">
<path d="M497.057 190.387C497.057 204.933 486.609 204.933 486.609 219.476C486.609 234.022 497.057 234.022 497.057 248.567C497.057 257.615 489.589 264.433 481.191 264.433C466.649 264.433 466.649 253.986 452.108 253.986C437.568 253.986 437.568 264.433 423.029 264.433C408.487 264.433 408.487 253.986 393.948 253.986C379.408 253.986 379.409 264.433 364.867 264.433C350.328 264.433 350.328 253.986 335.786 253.986C321.247 253.986 321.247 264.433 306.709 264.433C292.168 264.433 292.168 253.986 277.626 253.986C263.087 253.986 263.087 264.433 248.549 264.433C234.01 264.433 234.01 253.986 219.468 253.986C204.929 253.986 204.929 264.433 190.387 264.433C175.846 264.433 175.846 253.986 161.302 253.986C146.759 253.986 146.759 264.433 132.217 264.433C117.676 264.433 117.676 253.986 103.132 253.986C88.589 253.986 88.5891 264.433 74.0457 264.433C59.5002 264.433 59.5002 253.986 44.9568 253.986C30.4114 253.986 30.4113 264.433 15.8659 264.433C7.20436 264.433 0 257.337 0 248.567C0 234.025 10.4472 234.025 10.4472 219.484C10.4472 204.945 0 204.945 0 190.405V190.387C0 175.846 10.4472 175.846 10.4472 161.302C10.4472 146.759 0 146.761 0 132.217C0 117.676 10.4472 117.676 10.4472 103.132C10.4472 88.589 0 88.5891 0 74.0457C0 59.5002 10.4472 59.5002 10.4472 44.9547C10.4472 30.4093 0 30.4093 0 15.8659C0 6.78663 7.49737 0 15.8659 0C30.4074 0 30.4074 10.4472 44.9488 10.4472C59.4883 10.4472 59.4883 0 74.0278 0C88.5692 0 88.5693 10.4472 103.109 10.4472C117.648 10.4472 117.648 0 132.19 0C146.729 0 146.729 10.4472 161.271 10.4472C175.81 10.4472 175.81 0 190.348 0C204.889 0 204.889 10.4472 219.431 10.4472C233.97 10.4472 233.97 0 248.508 0C263.047 0 263.047 10.4472 277.589 10.4472C292.13 10.4472 292.13 0 306.669 0C321.211 0 321.211 10.4472 335.754 10.4472C350.298 10.4472 350.298 0 364.839 0C379.381 0 379.381 10.4472 393.924 10.4472C408.468 10.4472 408.468 0 423.011 0C437.556 0 437.557 10.4472 452.1 10.4472C466.643 10.4472 466.645 0 481.191 0C489.922 0 497.057 7.13903 497.057 15.8659C497.057 30.4074 486.609 30.4074 486.609 44.9488C486.609 59.4883 497.057 59.4883 497.057 74.0278C497.057 88.5673 486.609 88.5673 486.609 103.109C486.609 117.648 497.057 117.648 497.057 132.19C497.057 146.731 486.609 146.729 486.609 161.271C486.609 175.81 497.057 175.81 497.057 190.348V190.387Z" fill="#FDCB00"/>
</svg>
