<svg width="396" height="339" viewBox="0 0 396 339" fill="none" xmlns="http://www.w3.org/2000/svg">
<path d="M395.648 8.5391C395.648 1.98071 385.333 -1.33852 379.966 3.62867C378.79 4.71466 377.851 6.05082 377.256 7.62785L353.94 69.326L352.24 74.2505L350.541 69.326L327.22 7.62785C323.377 -2.54262 305.329 -2.54262 301.482 7.62785L278.166 69.326L274.819 79.0148L271.472 69.326L248.155 7.62785C244.312 -2.54262 226.26 -2.54262 222.417 7.62785L199.101 69.326L197.43 74.1609L195.759 69.326L172.443 7.62785C168.6 -2.54262 150.547 -2.54262 146.705 7.62785L123.388 69.326L121.689 74.2505L119.985 69.326L96.6685 7.62785C92.8257 -2.54262 74.7732 -2.54262 70.9305 7.62785L47.6143 69.326L44.2672 79.0148L40.9202 69.326L17.604 7.62785C17.5804 7.56175 17.552 7.49568 17.5284 7.42958C14.4551 -0.238407 0 1.88147 0 9.93191V329.004C0 337.054 14.4504 339.174 17.5284 331.506C17.5567 331.44 17.5804 331.378 17.604 331.308L40.9202 269.609L44.2672 259.916L47.6143 269.609L70.9352 331.308C74.778 341.478 92.8257 341.478 96.6732 331.308L119.989 269.609L121.694 264.685L123.393 269.609L146.709 331.308C150.552 341.478 168.605 341.478 172.447 331.308L195.763 269.609L197.435 264.775L199.106 269.609L222.422 331.308C226.265 341.478 244.317 341.478 248.16 331.308L271.476 269.609L274.823 259.916L278.17 269.609L301.486 331.308C305.329 341.478 323.382 341.478 327.225 331.308L350.546 269.609L352.245 264.685L353.944 269.609L377.261 331.308C377.855 332.889 378.8 334.221 379.97 335.307C385.338 340.274 395.653 336.959 395.653 330.396V8.5391H395.648Z" fill="#FF8000"/>
</svg>
