<svg width="260" height="258" viewBox="0 0 260 258" fill="none" xmlns="http://www.w3.org/2000/svg">
<path d="M256.929 122.392C249.57 111.631 224.213 104.327 183.199 108.35C182.792 107.243 182.351 106.153 181.879 105.078C213.687 79.2899 226.523 56.4012 224.21 43.6122C223.295 38.5416 220 35.207 214.935 34.2237C202.165 31.7403 179.138 44.1964 152.997 75.4838C152.127 75.0757 151.246 74.6884 150.353 74.3218C154.115 34.3067 146.85 9.49934 136.19 2.19926C131.908 -0.732437 127.191 -0.733733 122.907 2.19926C112.344 9.43198 105.116 33.8597 108.645 73.2374C107.449 73.6571 106.269 74.1105 105.108 74.6041C79.4705 43.581 56.7891 31.1262 44.0881 33.4801C39.0137 34.4194 35.6908 37.7242 34.7295 42.7882C32.3445 55.3545 44.5428 77.8325 75.0374 103.387C74.3067 104.919 73.6408 106.486 73.0449 108.086C33.7074 104.67 9.35473 111.882 2.16865 122.392C-0.722883 126.621 -0.722883 131.278 2.16865 135.508C9.38194 146.057 33.8926 153.283 73.4944 149.774C73.8662 150.708 74.2627 151.63 74.6798 152.539C44.0674 177.78 31.7123 200.101 33.9846 212.668C34.9005 217.739 38.1949 221.074 43.2603 222.057C44.3109 222.261 45.429 222.364 46.6156 222.364C59.6949 222.361 80.7284 209.8 104.385 181.77C105.813 182.399 107.27 182.973 108.754 183.49C104.974 223.557 112.241 248.397 122.908 255.702C125.05 257.168 127.3 257.902 129.549 257.902C131.799 257.902 134.048 257.168 136.19 255.702C146.953 248.332 154.253 223.113 150.239 182.415C151.097 182.065 151.944 181.696 152.781 181.307C176.523 210.147 197.757 223.082 210.926 223.08C212.045 223.08 213.108 222.987 214.107 222.802C219.181 221.862 222.504 218.558 223.466 213.494C225.885 200.743 213.291 177.79 181.809 151.773C182.139 151.025 182.456 150.27 182.755 149.507C224.03 153.628 249.544 146.309 256.931 135.509C259.82 131.278 259.82 126.621 256.929 122.392Z" fill="#3FA549"/>
</svg>
